# xmcd
#
# Track frame offsets:
#	187
#	14215
#	27722
#	40372
#	53307
#	62892
#	76590
#	89830
#	100602
#	108897
#	120217
#	131047
#	144315
#	159192
#	169645
#	183930
#	197565
#	208587
#
# Disc length: 2935 seconds
#
# Revision: 1
# Processed by: cddbd v1.5.2PL0 Copyright (c) Steve Scherf et al.
# Submitted via: audiograbber 1.83.01
#
DISCID=e70b7512
DTITLE=Patti Page - Tennessee Waltz
DYEAR=1989
DGENRE=Country
TTITLE0=Tennessee Waltz
TTITLE1=Changing Partners
TTITLE2=Why Don't You Believe Me?
TTITLE3=You Belong To Me
TTITLE4=Release Me
TTITLE5=Mack The Knife
TTITLE6=Would I Love You
TTITLE7=Autumn Leaves
TTITLE8=Memories Of You
TTITLE9=The Doggie In The Window
TTITLE10=It's A Sin To Tell A Lie
TTITLE11=Lover Come Back To Me
TTITLE12=I Went To Your Wedding
TTITLE13=Tenderly
TTITLE14=South Of The Border
TTITLE15=Mockin' Bird Hill
TTITLE16=Let Me Go, Lover
TTITLE17=Till We Meet Again
EXTD=Mercury, Nippon Phonogram Co., Ltd.\nJASRAC
EXTT0=
EXTT1=
EXTT2=
EXTT3=
EXTT4=
EXTT5=
EXTT6=
EXTT7=
EXTT8=
EXTT9=
EXTT10=
EXTT11=
EXTT12=
EXTT13=
EXTT14=
EXTT15=
EXTT16=
EXTT17=
PLAYORDER=
